<svg width="32" height="32" viewBox="0 0 32 32" fill="none" xmlns="http://www.w3.org/2000/svg">
<path d="M24.8252 4.87976C20.059 0.125705 12.3579 0.164132 7.59162 4.91819C2.82535 9.67224 2.79183 17.3717 7.55721 22.1251L16.1693 30.6667L24.7982 22.058C29.5647 17.3033 29.5909 9.6344 24.8252 4.87976ZM16.1922 23.8485C10.4276 23.8485 5.75369 19.1868 5.75369 13.436C5.75369 7.68374 10.4279 3.0212 16.1922 3.0212C21.9586 3.0212 26.6326 7.68374 26.6326 13.436C26.6305 19.1868 21.9586 23.8485 16.1922 23.8485Z" fill="#333333"/>
<path d="M15.6126 6.02907C16.0587 5.64803 16.8418 5.77592 17.0947 6.31947C17.6076 7.58696 18.1113 8.85856 18.6209 10.1269C18.6297 10.1698 18.67 10.1847 18.71 10.1847C19.9854 10.2715 21.2602 10.3751 22.5359 10.4663C22.9014 10.4739 23.2643 10.6749 23.4298 11.0063C23.6345 11.3786 23.5657 11.8949 23.2307 12.1703C22.2021 13.0139 21.1829 13.869 20.1568 14.7153C20.128 14.7396 20.0995 14.7648 20.0801 14.7971C20.37 16.0558 20.6947 17.3083 20.9982 18.5644C21.2278 19.1945 20.6894 19.9375 20.013 19.8879C19.7796 19.885 19.5758 19.7582 19.3896 19.6309C18.3839 18.997 17.3776 18.3629 16.3707 17.7298C16.2848 17.6773 16.204 17.6116 16.1075 17.5808C14.9662 18.2661 13.8426 18.9827 12.7043 19.6741C12.3914 19.8603 11.9756 19.8574 11.6683 19.6609C11.3439 19.4684 11.1448 19.0716 11.221 18.6973C11.5489 17.3547 11.9179 16.0174 12.2311 14.6721C11.3063 13.8781 10.3676 13.1005 9.43834 12.312C9.22808 12.1415 8.99959 11.9638 8.90843 11.6989C8.68523 11.1665 9.03811 10.4728 9.62301 10.3898C11.0145 10.2724 12.4158 10.2231 13.8038 10.0958C14.284 8.95155 14.7457 7.79816 15.2206 6.65035C15.3091 6.42067 15.4109 6.18219 15.6126 6.02907Z" fill="#333333"/>
<rect x="5.60681" y="2.80005" width="21.1729" height="21.12" rx="10.56" fill="#FBC100"/>
<path d="M21.7806 14.8874L20.3837 17.1128L17.5901 15.5855V18.6401H14.7964V15.5855L12.0028 17.1128L10.606 14.8874L13.4462 13.3601L10.6525 11.8328L12.0028 9.60735L14.7964 11.1346V8.08008H17.5901V11.1346L20.3837 9.60735L21.734 11.8328L18.9404 13.3601L21.7806 14.8874Z" fill="black"/>
</svg>
